<svg width="76" height="81" viewBox="0 0 76 81" fill="none" xmlns="http://www.w3.org/2000/svg">
<path d="M50.4525 1.03231C43.7797 -0.853708 28.0734 -0.340368 24.1469 4.11913C13.9383 4.291 1.96453 12.3507 0.393384 22.9861C-1.15964 33.5107 2.3036 38.3976 3.53567 46.3125C4.9308 55.279 10.7003 58.1465 15.3153 59.3473C21.9519 67.0067 29.0078 66.6788 40.8522 66.6788C63.9845 66.6788 75.0006 53.1555 75.9738 30.1887C76.5614 16.2968 67.2329 5.77675 50.4525 1.03231Z" fill="black"/>
<path d="M63.6816 31.1705C61.4427 28.4636 58.5774 26.2836 52.2954 25.5102C54.6508 26.4532 56.9078 29.7119 57.2029 31.512C57.498 33.312 57.7931 34.7707 55.9269 32.9706C48.4568 25.7567 40.319 28.597 32.2562 24.1895C26.6239 21.1117 24.9104 17.7061 24.9104 17.7061C24.9104 17.7061 24.2245 22.2515 15.6829 26.8829C13.2084 28.2261 10.255 31.2157 8.61661 35.63C7.4389 38.8027 7.80386 41.634 7.80386 46.4689C7.80386 60.5846 21.1184 72.4525 37.5442 72.4525C53.97 72.4525 67.2846 60.4806 67.2846 46.4689C67.2872 37.6879 66.2337 34.2596 63.6816 31.1705Z" fill="#F7DECE"/>
<path d="M61.8129 54.2589C59.1158 56.7465 53.7242 61.7216 48.3326 59.234C40.7073 55.7153 37.5469 56.7465 37.5469 56.7465C37.5469 56.7465 34.3865 55.7175 26.7612 59.234C21.3696 61.7216 15.9754 56.7465 13.2809 54.2589C11.3733 52.4996 5.19226 49.2838 5.19226 54.2589C5.19226 61.7216 10.5838 66.6967 10.5838 66.6967C15.9754 79.1344 26.7612 79.1344 26.7612 79.1344C29.4582 81.622 45.6356 81.622 48.3301 79.1344C48.3301 79.1344 59.1158 79.1344 64.5074 66.6967C64.5074 66.6967 69.8989 61.7216 69.8989 54.2589C69.9015 49.2838 63.7179 52.5018 61.8129 54.2589Z" fill="black"/>
<path d="M37.5469 66.6987C26.7612 66.6987 18.6725 61.7236 37.5469 61.7236C56.4213 61.7236 48.3327 66.6987 37.5469 66.6987Z" fill="#F7DECE"/>
<path d="M40.8497 53.6873H34.2416C33.3279 53.6873 32.5902 53.0428 32.5902 52.2445C32.5902 51.4463 33.3279 50.8018 34.2416 50.8018H40.8497C41.7634 50.8018 42.5011 51.4463 42.5011 52.2445C42.5011 53.0428 41.7634 53.6873 40.8497 53.6873Z" fill="#C1694F"/>
<path d="M24.3281 43.5829C22.5033 43.5829 21.0228 42.2894 21.0228 40.6951V37.8073C21.0228 36.213 22.5033 34.9194 24.3281 34.9194C26.1529 34.9194 27.6335 36.213 27.6335 37.8073V40.6951C27.6335 42.2894 26.1529 43.5829 24.3281 43.5829ZM50.7632 43.5829C48.9383 43.5829 47.4578 42.2894 47.4578 40.6951V37.8073C47.4578 36.213 48.9383 34.9194 50.7632 34.9194C52.588 34.9194 54.0685 36.213 54.0685 37.8073V40.6951C54.0685 42.2894 52.588 43.5829 50.7632 43.5829Z" fill="#662113"/>
</svg>
