<svg width="76" height="81" viewBox="0 0 76 81" fill="none" xmlns="http://www.w3.org/2000/svg">
<path d="M12.6667 42.75C12.6667 47.7203 9.83187 51.75 6.33333 51.75C2.8348 51.75 0 47.7203 0 42.75C0 37.7797 2.8348 33.75 6.33333 33.75C9.83187 33.75 12.6667 37.7797 12.6667 42.75ZM76 42.75C76 47.7203 73.1652 51.75 69.6667 51.75C66.1681 51.75 63.3333 47.7203 63.3333 42.75C63.3333 37.7797 66.1681 33.75 69.6667 33.75C73.1652 33.75 76 37.7797 76 42.75Z" fill="#F3D2A2"/>
<path d="M5.06665 46.2646C5.06665 27.0811 19.8107 11.5291 38 11.5291C56.1893 11.5291 70.9333 27.0811 70.9333 46.2646C70.9333 65.4481 56.1893 81.0001 38 81.0001C19.8107 81.0001 5.06665 65.4481 5.06665 46.2646Z" fill="#F3D2A2"/>
<path d="M25.3334 45C23.935 45 22.8 43.9942 22.8 42.75V38.25C22.8 37.008 23.935 36 25.3334 36C26.7318 36 27.8667 37.008 27.8667 38.25V42.75C27.8667 43.9942 26.7318 45 25.3334 45ZM50.6667 45C49.2658 45 48.1334 43.9942 48.1334 42.75V38.25C48.1334 37.008 49.2658 36 50.6667 36C52.0676 36 53.2 37.008 53.2 38.25V42.75C53.2 43.9942 52.0676 45 50.6667 45Z" fill="#662113"/>
<path d="M40.5333 54H35.4667C34.0683 54 32.9333 52.9942 32.9333 51.75C32.9333 50.5058 34.0683 49.5 35.4667 49.5H40.5333C41.9343 49.5 43.0667 50.5058 43.0667 51.75C43.0667 52.9942 41.9343 54 40.5333 54Z" fill="#C1694F"/>
<path d="M56.4275 60.8355L48.0827 58.7183C48.0903 58.6418 48.1333 58.5765 48.1333 58.5C48.1333 57.2557 47.0009 56.25 45.6 56.25H30.4C29.0016 56.25 27.8667 57.2557 27.8667 58.5C27.8667 58.5765 27.9072 58.6418 27.9148 58.7183L19.57 60.8355C18.2248 61.1775 17.4471 62.424 17.8321 63.6165C18.1488 64.6065 19.1621 65.25 20.2667 65.25C20.4972 65.25 20.7328 65.2207 20.9633 65.1645L25.8552 63.9225C25.308 64.5817 25.1611 65.4705 25.6019 66.2558C26.0452 67.0455 26.9395 67.5 27.8692 67.5C28.2492 67.5 28.6368 67.4235 28.9991 67.2637L32.9941 65.4908C33.0853 66.2243 33.5337 66.9105 34.3343 67.2637C34.6965 67.4235 35.0841 67.5 35.4641 67.5C36.3939 67.5 37.2881 67.0455 37.734 66.2558L38 65.781L38.266 66.2558C38.7119 67.0455 39.6061 67.5 40.5359 67.5C40.9159 67.5 41.3035 67.4235 41.6657 67.2637C42.4637 66.9105 42.9147 66.2243 43.0059 65.4908L46.9984 67.2637C47.3632 67.4235 47.7508 67.5 48.1308 67.5C49.0605 67.5 49.9548 67.0455 50.4007 66.2558C50.8415 65.4705 50.6945 64.5817 50.1473 63.9225L55.0392 65.1645C55.2697 65.2207 55.5028 65.25 55.7359 65.25C56.8353 65.25 57.8512 64.6065 58.1704 63.6165C58.5529 62.424 57.7752 61.1775 56.4275 60.8355ZM38 0C59.8247 0 73.4667 14.3055 73.4667 26.226C73.4667 38.1465 70.7383 42.9142 68.0099 38.1465L62.5556 28.611C62.5556 28.611 46.1852 28.611 40.7309 23.841C40.7309 23.841 48.9136 38.1465 32.5457 23.841C32.5457 23.841 35.2741 33.3787 18.9037 21.456C18.9037 21.456 10.7211 26.226 7.99012 38.1442C7.23266 41.4517 2.53333 38.1465 2.53333 26.226C2.53333 14.3033 13.4469 0 38 0Z" fill="#272725"/>
</svg>
