<svg width="76" height="81" viewBox="0 0 76 81" fill="none" xmlns="http://www.w3.org/2000/svg">
<path d="M38.0118 4.76465C52.2574 4.76465 76 11.9117 76 42.8823C76 73.8529 76 80.9999 68.8772 80.9999C61.7544 80.9999 52.2574 73.8529 38.0118 73.8529C23.7662 73.8529 14.471 80.9999 7.1464 80.9999C-0.790763 80.9999 0.0236089 52.4117 0.0236089 42.8823C0.0236089 11.9117 23.7662 4.76465 38.0118 4.76465Z" fill="#59352C"/>
<path d="M9.52063 41.8388C9.52063 21.5269 22.2775 5.06006 38.0118 5.06006C53.746 5.06006 66.5029 21.5269 66.5029 41.8388C66.5029 62.1508 53.746 78.6176 38.0118 78.6176C22.2775 78.6176 9.52063 62.1508 9.52063 41.8388Z" fill="#F9E0CC"/>
<path d="M38.0119 69.0879C32.4395 69.0879 29.5239 66.3243 29.2105 66.0075C28.2821 65.076 28.2821 63.5703 29.2105 62.6388C30.1293 61.7169 31.6156 61.7097 32.5439 62.615C32.665 62.727 34.4576 64.3232 38.0119 64.3232C41.6184 64.3232 43.4086 62.6793 43.4845 62.6102C44.4295 61.7216 45.9229 61.7478 46.8275 62.6793C47.7273 63.6156 47.7297 65.0879 46.8133 66.0075C46.4999 66.3243 43.5843 69.0879 38.0119 69.0879Z" fill="#DF1F32"/>
<path d="M40.3861 57.1766H35.6376C34.327 57.1766 33.2633 56.1117 33.2633 54.7942C33.2633 53.4768 34.327 52.4119 35.6376 52.4119H40.3861C41.6991 52.4119 42.7604 53.4768 42.7604 54.7942C42.7604 56.1117 41.6991 57.1766 40.3861 57.1766Z" fill="#A45239"/>
<path d="M2.54926 54.7941C2.47804 54.0199 2.39731 53.2527 2.39731 52.4118C2.39731 40.5 9.5201 53.7506 9.5201 45.2647C9.5201 36.7764 14.2686 35.7353 19.0171 30.9706L26.1399 23.8235C26.1399 23.8235 38.0112 30.9706 47.5083 30.9706C57.0053 30.9706 66.5024 35.7353 66.5024 45.2647C66.5024 54.7941 73.6252 40.5 73.6252 52.4118C73.6252 53.2575 73.5468 54.0151 73.4875 54.7941H75.9781C75.9995 51.2754 75.9994 47.3326 75.9994 42.8824C75.9994 11.9118 52.2568 0 38.0112 0C23.7657 0 0.0230486 11.9118 0.0230486 42.8824C0.0230486 45.6411 -0.0434306 49.9961 0.0515399 54.7941H2.54926Z" fill="#59352C"/>
<path d="M26.1406 50.0294C24.83 50.0294 23.7663 48.9645 23.7663 47.6471V42.8824C23.7663 41.5673 24.83 40.5 26.1406 40.5C27.4512 40.5 28.5148 41.5673 28.5148 42.8824V47.6471C28.5148 48.9645 27.4512 50.0294 26.1406 50.0294ZM49.8832 50.0294C48.5702 50.0294 47.5089 48.9645 47.5089 47.6471V42.8824C47.5089 41.5673 48.5702 40.5 49.8832 40.5C51.1961 40.5 52.2574 41.5673 52.2574 42.8824V47.6471C52.2574 48.9645 51.1961 50.0294 49.8832 50.0294Z" fill="#4F322C"/>
</svg>
