<svg width="76" height="81" viewBox="0 0 76 81" fill="none" xmlns="http://www.w3.org/2000/svg">
<path d="M76 45.2646C76 40.002 72.9627 35.7352 69.2143 35.7352C69.1817 35.7352 69.1573 35.7471 69.1247 35.7471C65.0207 20.7359 52.6409 9.82715 38 9.82715C23.3591 9.82715 10.9766 20.7383 6.87529 35.7471C6.84271 35.7448 6.81557 35.7352 6.78571 35.7352C3.03729 35.7352 0 40.002 0 45.2646C0 50.2843 2.77129 54.3533 6.28086 54.7226C9.60043 70.5629 22.5259 80.9999 38 80.9999C53.4714 80.9999 66.3996 70.5629 69.7164 54.7226C73.2287 54.3533 76 50.2843 76 45.2646Z" fill="#F7DECE"/>
<path d="M24.4285 47.6471C22.9302 47.6471 21.7142 46.5822 21.7142 45.2647V40.5C21.7142 39.185 22.9302 38.1177 24.4285 38.1177C25.9268 38.1177 27.1428 39.185 27.1428 40.5V45.2647C27.1428 46.5822 25.9268 47.6471 24.4285 47.6471ZM51.5714 47.6471C50.0704 47.6471 48.8571 46.5822 48.8571 45.2647V40.5C48.8571 39.185 50.0704 38.1177 51.5714 38.1177C53.0724 38.1177 54.2857 39.185 54.2857 40.5V45.2647C54.2857 46.5822 53.0724 47.6471 51.5714 47.6471Z" fill="#662113"/>
<path d="M38 71.4707C26.5973 71.4707 23.0959 68.9049 22.5096 68.3903C21.4483 67.4588 21.4483 65.9531 22.5096 65.0216C23.5356 64.1187 25.1804 64.0925 26.2444 64.9359C26.4616 65.074 29.2302 66.706 38 66.706C47.1064 66.706 49.742 64.9454 49.7692 64.9263C50.8277 63.9996 52.4862 64.0449 53.5502 64.9764C54.6114 65.9079 54.5517 67.4612 53.4932 68.3927C52.9042 68.9049 49.4027 71.4707 38 71.4707ZM40.7143 59.5589H35.2857C33.7874 59.5589 32.5714 58.494 32.5714 57.1765C32.5714 55.8591 33.7874 54.7942 35.2857 54.7942H40.7143C42.2153 54.7942 43.4286 55.8591 43.4286 57.1765C43.4286 58.494 42.2153 59.5589 40.7143 59.5589Z" fill="#C1694F"/>
<path d="M37.9999 0C59.7142 0 73.2857 14.2941 73.2857 26.2059C73.2857 38.1176 70.5714 42.8824 67.8571 38.1176L62.4285 28.5882C62.4285 28.5882 46.1428 28.5882 40.7142 23.8235C40.7142 23.8235 48.8571 38.1176 32.5714 23.8235C32.5714 23.8235 35.2857 33.3529 18.9999 21.4412C18.9999 21.4412 10.8571 26.2059 8.1428 38.1176C7.39095 41.422 2.71423 38.1176 2.71423 26.2059C2.71423 14.2941 13.5714 0 37.9999 0Z" fill="#CCCCCC"/>
</svg>
