<svg xmlns="http://www.w3.org/2000/svg" viewBox="0 0 500 500"><g id="freepik--background-complete--inject-72"><rect y="382.4" width="500" height="0.25" style="fill:#ebebeb"></rect><rect x="52.46" y="391.92" width="16.06" height="0.25" style="fill:#ebebeb"></rect><rect x="171.14" y="389.21" width="53.53" height="0.25" style="fill:#ebebeb"></rect><rect x="69.52" y="401.21" width="36.25" height="0.25" style="fill:#ebebeb"></rect><rect x="379.14" y="389.08" width="43.19" height="0.25" style="fill:#ebebeb"></rect><rect x="431.24" y="389.08" width="6.33" height="0.25" style="fill:#ebebeb"></rect><rect x="317" y="395.31" width="53.89" height="0.25" style="fill:#ebebeb"></rect><path d="M237,337.8H43.91a5.71,5.71,0,0,1-5.7-5.71V60.66A5.71,5.71,0,0,1,43.91,55H237a5.71,5.71,0,0,1,5.71,5.71V332.09A5.71,5.71,0,0,1,237,337.8ZM43.91,55.2a5.46,5.46,0,0,0-5.45,5.46V332.09a5.46,5.46,0,0,0,5.45,5.46H237a5.47,5.47,0,0,0,5.46-5.46V60.66A5.47,5.47,0,0,0,237,55.2Z" style="fill:#ebebeb"></path><path d="M453.31,337.8H260.21a5.72,5.72,0,0,1-5.71-5.71V60.66A5.72,5.72,0,0,1,260.21,55h193.1A5.71,5.71,0,0,1,459,60.66V332.09A5.71,5.71,0,0,1,453.31,337.8ZM260.21,55.2a5.47,5.47,0,0,0-5.46,5.46V332.09a5.47,5.47,0,0,0,5.46,5.46h193.1a5.47,5.47,0,0,0,5.46-5.46V60.66a5.47,5.47,0,0,0-5.46-5.46Z" style="fill:#ebebeb"></path><path d="M296.3,104.28a20.56,20.56,0,0,0-18.45,11.48,27.57,27.57,0,0,0-38-15.76,39.15,39.15,0,0,0-68.43-8.72,39.15,39.15,0,0,0-66.3,10.84,33,33,0,0,0-54.69,25,30.78,30.78,0,0,0,.51,5.71H315.3a20.6,20.6,0,0,0-19-28.54Z" style="fill:#ebebeb"></path><path d="M403.8,310.19a10.59,10.59,0,0,0-9.52,5.93A14.25,14.25,0,0,0,374.67,308a20.21,20.21,0,0,0-35.33-4.5,20.21,20.21,0,0,0-34.23,5.59A17.06,17.06,0,0,0,276.88,322a15.87,15.87,0,0,0,.26,2.95H413.61a10.63,10.63,0,0,0-9.81-14.73Z" style="fill:#f5f5f5"></path><path d="M76.6,127.06a13.07,13.07,0,0,1,7.64,2.44,18.37,18.37,0,0,1,34.63-1.14,13.27,13.27,0,0,1,5.73-1.3,13.08,13.08,0,0,1,8.39,3,16.61,16.61,0,0,1,21.66-8.66,20.5,20.5,0,0,1,37.49,11.47,20.12,20.12,0,0,1-.83,5.74H63.54A13.14,13.14,0,0,1,76.6,127.06Z" style="fill:#f5f5f5"></path><path d="M75.55,241.32a9.77,9.77,0,0,1,5.74,1.84,13.79,13.79,0,0,1,26-.86,10,10,0,0,1,4.31-1,9.85,9.85,0,0,1,6.29,2.26,12.49,12.49,0,0,1,16.26-6.5,15.4,15.4,0,0,1,28.15,8.62,15,15,0,0,1-.62,4.3H65.75A9.87,9.87,0,0,1,75.55,241.32Z" style="fill:#f5f5f5"></path><path d="M408.68,116.33a23.1,23.1,0,0,0-11.29,2.94,30.89,30.89,0,0,0-23.53-10.82,31.84,31.84,0,0,0-6.52.69,44.08,44.08,0,0,0-80-.67,3.39,3.39,0,0,0-.45,0,31,31,0,0,0-29.31,20.81,23.17,23.17,0,0,0-42.15,19.2H430.07a23.19,23.19,0,0,0-21.39-32.13Z" style="fill:#f5f5f5"></path><path d="M242.57,271.19a19.21,19.21,0,0,0-9.41,2.46,25.76,25.76,0,0,0-19.62-9,26.33,26.33,0,0,0-5.43.57,36.74,36.74,0,0,0-66.7-.56H141A25.88,25.88,0,0,0,116.6,282a19.31,19.31,0,0,0-35.13,16H260.39a19.34,19.34,0,0,0-17.82-26.79Z" style="fill:#f5f5f5"></path><path d="M260.75,147a9.51,9.51,0,0,1,8.52,5.31A12.74,12.74,0,0,1,286.8,145a18.08,18.08,0,0,1,31.6-4A18.07,18.07,0,0,1,349,146a15.26,15.26,0,0,1,25.25,11.54,14.29,14.29,0,0,1-.24,2.63H252A9.52,9.52,0,0,1,260.75,147Z" style="fill:#ebebeb"></path><path d="M304.44,234.75a11.06,11.06,0,0,1,9.93,6.18,14.84,14.84,0,0,1,14-9.94,14.68,14.68,0,0,1,6.42,1.46,21.07,21.07,0,0,1,36.83-4.69,21.06,21.06,0,0,1,35.67,5.83A17.79,17.79,0,0,1,436.73,247a17.35,17.35,0,0,1-.27,3.07H294.22a10.9,10.9,0,0,1-.86-4.28A11.08,11.08,0,0,1,304.44,234.75Z" style="fill:#ebebeb"></path></g><g id="freepik--Shadow--inject-72"><ellipse id="freepik--path--inject-72" cx="250" cy="416.24" rx="193.89" ry="11.32" style="fill:#f5f5f5"></ellipse></g><g id="freepik--Leaves--inject-72"><path d="M177.41,320.57c-39.69-22.1-73.86-14.22-73.86-14.22s52.13,52,93,54.89C197.27,346.14,190.56,327.89,177.41,320.57Z" style="fill:#5A6383"></path><path d="M177.41,320.57c-39.69-22.1-73.86-14.22-73.86-14.22s52.13,52,93,54.89C197.27,346.14,190.56,327.89,177.41,320.57Z" style="fill:#fff;opacity:0.5"></path><path d="M103.55,306.35s52.13,52,93,54.89C187.68,337.3,150.32,315.72,103.55,306.35Z" style="fill:#fff;opacity:0.5"></path><path d="M267.36,137c-9.41-21.74-26.05-29.32-26.05-29.32s5.07,38.06,21.07,52.23C267.47,153.88,270.48,144.21,267.36,137Z" style="fill:#5A6383"></path><path d="M267.36,137c-9.41-21.74-26.05-29.32-26.05-29.32s5.07,38.06,21.07,52.23C267.47,153.88,270.48,144.21,267.36,137Z" style="fill:#fff;opacity:0.5"></path><path d="M241.31,107.68s5.07,38.06,21.07,52.23C266.3,147.18,257.69,126.4,241.31,107.68Z" style="fill:#fff;opacity:0.5"></path><path d="M323.22,291.88c29.68-17.88,55.94-12.77,55.94-12.77s-38.39,41-69.49,44.28C308.74,311.89,313.38,297.81,323.22,291.88Z" style="fill:#5A6383"></path><path d="M323.22,291.88c29.68-17.88,55.94-12.77,55.94-12.77s-38.39,41-69.49,44.28C308.74,311.89,313.38,297.81,323.22,291.88Z" style="fill:#fff;opacity:0.5"></path><path d="M379.16,279.11s-38.39,41-69.49,44.28C315.82,304.91,343.74,287.48,379.16,279.11Z" style="fill:#fff;opacity:0.5"></path><path d="M334.05,309c21.39-2.25,34.81,7.53,34.81,7.53s-32.37,13-50.72,6.63C320.65,316.47,327,309.77,334.05,309Z" style="fill:#5A6383"></path><path d="M334.05,309c21.39-2.25,34.81,7.53,34.81,7.53s-32.37,13-50.72,6.63C320.65,316.47,327,309.77,334.05,309Z" style="fill:#fff;opacity:0.5"></path><path d="M368.86,316.55s-32.37,13-50.72,6.63C326.46,314.41,346.74,312,368.86,316.55Z" style="fill:#fff;opacity:0.5"></path><path d="M229,385.19A66.41,66.41,0,0,1,203.09,380c-23.8-10-38.79-31.74-44.89-48.78-7-19.58-9.64-42.79-7-62.07,3.52-26.11,16.34-45.21,37.09-55.22,11.34-5.47,23.91-13.28,37.21-21.55,41.11-25.56,87.7-54.53,111.67-20.11,21.59,31,25.59,87.15,9.1,127.82C338.79,318.37,324,341.36,296,346.82c-17.11,3.34-18.35,8.65-19.79,14.81-1.16,5-2.47,10.58-12.84,15.38l-.21-.45.21.45C251.56,382.46,240.06,385.19,229,385.19Zm78.2-227.7c-23.77,0-53.7,18.61-81.17,35.69-13.33,8.28-25.92,16.11-37.31,21.6-20.43,9.86-33.06,28.69-36.53,54.45-2.57,19.14.05,42.16,7,61.6,6,16.84,20.83,38.34,44.33,48.19,18.5,7.76,38.5,6.77,59.46-2.92h0c9.93-4.59,11.13-9.73,12.29-14.7,1.45-6.22,2.82-12.1,20.57-15.56,27.62-5.37,42.17-28.08,49.5-46.17,16.38-40.39,12.42-96.12-9-126.88C328.67,161.84,318.63,157.49,307.15,157.49Z" style="fill:#5A6383"></path><path d="M150.66,289.83c-8.33-15.5-11.16-6.66-9-3.16S150.66,289.83,150.66,289.83Z" style="fill:#5A6383"></path><path d="M161.09,336.93c-11-13.72-12.2-4.52-9.43-1.48S161.09,336.93,161.09,336.93Z" style="fill:#5A6383"></path><path d="M152.94,308.67c8.65-15.33,11.3-6.44,9.06-3S152.94,308.67,152.94,308.67Z" style="fill:#5A6383"></path><path d="M183,366.89c-8-15.67.86-13,2.51-9.21S183,366.89,183,366.89Z" style="fill:#5A6383"></path><path d="M331.44,324.6c15.45-8.42,13,.53,9.26,2.27S331.44,324.6,331.44,324.6Z" style="fill:#5A6383"></path><path d="M323.55,160.66c-15-9.17-6-11.51-2.66-9.16S323.55,160.66,323.55,160.66Z" style="fill:#5A6383"></path><path d="M350.91,285.23c-.54-17.59-7-11-6.64-6.85S350.91,285.23,350.91,285.23Z" style="fill:#5A6383"></path><path d="M151.61,268.76c8.65-15.33,11.3-6.44,9.06-3S151.61,268.76,151.61,268.76Z" style="fill:#5A6383"></path></g><g id="freepik--character-1--inject-72"><path d="M100.78,149l-3.56.88a18.65,18.65,0,0,1-1.47,6.66c1.28-.14,1.73-.45,1.89-.69-.18.82-.39,3.3,2.88,5.22A11.92,11.92,0,0,0,100.78,149Z" style="fill:#e0e0e0"></path><path d="M145.69,245.43,169.1,230v0l14.53-9.88c7.53,6.29,14.63,15,21.88,24.87l-37.8,42.67C156.76,272.58,145.69,245.43,145.69,245.43Z" style="fill:#263238"></path><path d="M123.36,190c-1.17,2.87-2.4,5.48-3.74,8.16s-2.74,5.28-4.3,7.87a82,82,0,0,1-5.11,7.69,48.08,48.08,0,0,1-3.12,3.79,29.46,29.46,0,0,1-4.08,3.72l-.34.26a5.71,5.71,0,0,1-5.86.56,13.17,13.17,0,0,1-4-2.95,22,22,0,0,1-2.34-3,35.57,35.57,0,0,1-3-5.81,54.56,54.56,0,0,1-2-5.79,49.15,49.15,0,0,1-1.33-5.93,3.43,3.43,0,0,1,6.28-2.39l.08.13,3,4.62c1,1.53,2,3,3,4.43a34.67,34.67,0,0,0,3.1,3.78,8.78,8.78,0,0,0,1.44,1.28c.42.29.76.41.66.29l-6.2.81a19,19,0,0,0,2-2.29c.71-.94,1.43-1.95,2.13-3,1.38-2.16,2.71-4.49,4-6.87s2.52-4.83,3.72-7.31,2.42-5,3.53-7.4l0-.11A6.81,6.81,0,0,1,123.36,190Z" style="fill:#ffc3bd"></path><path d="M90.76,198.64l-.54-8.39-8.92,3.68s1,8,5.61,7.74Z" style="fill:#ffc3bd"></path><path d="M86.13,185.56l-4.06,1.53a2.32,2.32,0,0,0-1.47,2.53l.7,4.31,8.92-3.68L89.15,187A2.32,2.32,0,0,0,86.13,185.56Z" style="fill:#ffc3bd"></path><path d="M113.76,179.13c-6.42,4.53-10.58,18.53-10.58,18.53l13.93,10.54A40.42,40.42,0,0,0,124,195.63C124.83,193.15,121.38,173.77,113.76,179.13Z" style="fill:#263238"></path><path d="M113.05,179.69a126.86,126.86,0,0,1,27-15.7,11.37,11.37,0,0,1,13,3.32c7.32,8.91,13.51,22.3,31.28,52.89-2.5,3.62-12.32,11.11-20.52,16.55-.89.59-4.49.21-4.49.21s-.61,3-1.79,3.75c-5.62,3.36-10.81,6.13-12.53,5.85-3-7.91-14.71-22.48-22.34-34.17-3.31-4.37-9-12.73-10.91-18.58C110,188.27,108.48,183.28,113.05,179.69Z" style="fill:#263238"></path><path d="M121.35,155.54c3.32,5,8.26,11.42,12.16,13.56.41,4.36-2.19,10.15-5.67,14.82-5.51-1.06-7.74-4.52-8-7.38,1.08-3.89-1.56-6.33-3.22-8.18Z" style="fill:#ffc3bd"></path><path d="M127.84,183.92a7.29,7.29,0,0,1-3.19-1.74c-1.24-1.28-2.91,1.6-2.91,1.6A12,12,0,0,0,127.84,183.92Z" style="fill:#e0e0e0"></path><path d="M127.84,183.92a3.26,3.26,0,0,1,.71-3.65,10.43,10.43,0,0,1,3.87-2.58S130.27,182,127.84,183.92Z" style="fill:#e0e0e0"></path><path d="M120.55,160.72c-.2-.32-.42-.63-.63-.93l-3.28,8.58a14.32,14.32,0,0,1,3,4.14C121.68,169,122.5,163.76,120.55,160.72Z" style="opacity:0.2"></path><path d="M119,148.66c2.56,7.46,4.44,11.7,2.29,16.92-3.23,7.85-13.64,8.16-18.38,1.6-4.27-5.91-7.74-17.11-1.78-22.88A10.86,10.86,0,0,1,119,148.66Z" style="fill:#ffc3bd"></path><path d="M112.55,141.74c-2.82,5-12.27,10.58-19.57,9.84a2.79,2.79,0,0,0,1.37-2.21s-4.94.65-7.2-2.2c5.28.27,7.58-3.63,9.29-5.57,2.26-2.54,4.18-4.57,8.8-4.82-3.86-1.1-4-3-4-3S114.69,138,112.55,141.74Z" style="fill:#e0e0e0"></path><path d="M109.41,143.54c1.92-4.95,2.57-7.84,2-9.38a5.61,5.61,0,0,1,2.38,3.35,7,7,0,0,1,6.71.07c3.66,1.95,2.92,12,1.38,14.06-4.23,3.5-5.41,3.66-5.41,3.66s-1.7-4.51-1-6.71c-1,2.13-2.42,1.39-2.42,1.39s1.4-2.54.13-4.12C111.83,147.19,108.39,146.34,109.41,143.54Z" style="fill:#e0e0e0"></path><path d="M106,166.41s1.76-1.7,7.46-5.1a5.66,5.66,0,0,1-3.13,6.14A2.93,2.93,0,0,1,106,166.41Z" style="fill:#263238"></path><path d="M110.91,165.22a6.39,6.39,0,0,0-2.72,2.77,3.45,3.45,0,0,0,2.11-.54,6.31,6.31,0,0,0,2.71-2.77A3.35,3.35,0,0,0,110.91,165.22Z" style="fill:#ed847e"></path><path d="M106.2,166.2a1.29,1.29,0,0,0,1.36.37,34.43,34.43,0,0,0,4.8-3.46,2,2,0,0,0,.82-1.65A53,53,0,0,0,106.2,166.2Z" style="fill:#fff"></path><path d="M113.05,160.17s1.49-1.08,2,.35C114.5,160.08,113.05,160.17,113.05,160.17Z" style="opacity:0.2"></path><path d="M111,154.18a4.29,4.29,0,0,1,2.83-1.67A8.54,8.54,0,0,1,111,154.18Z" style="opacity:0.2"></path><path d="M111.41,154.82a3.52,3.52,0,0,1,2.86-.82A6.94,6.94,0,0,1,111.41,154.82Z" style="opacity:0.2"></path><path d="M100.78,158.36s-1.19-.4-1.59.18A2.83,2.83,0,0,0,100.78,158.36Z" style="opacity:0.2"></path><path d="M101.07,158.86s-1-.12-1.1.64A1.67,1.67,0,0,0,101.07,158.86Z" style="opacity:0.2"></path><path d="M123.84,151.82a7.45,7.45,0,0,1-1.26,5.57c-1.54,2.13-4,1.16-4.91-1.13-.86-2.07-1.09-5.66,1.11-7A3.39,3.39,0,0,1,123.84,151.82Z" style="fill:#ffc3bd"></path><path d="M110.11,155c.25.59.13,1.2-.26,1.36s-.9-.2-1.15-.79-.12-1.2.27-1.36S109.87,154.43,110.11,155Z" style="fill:#263238"></path><path d="M102.7,158c.24.6.12,1.2-.27,1.36s-.9-.2-1.14-.79-.13-1.2.26-1.36S102.45,157.43,102.7,158Z" style="fill:#263238"></path><path d="M104.85,157.12a22.55,22.55,0,0,1-.36,6.25,3.73,3.73,0,0,0,3-.8Z" style="fill:#ed847e"></path><path d="M110.23,150.83a.29.29,0,0,0,.14-.13.38.38,0,0,0-.13-.52,3.8,3.8,0,0,0-3.44-.29.37.37,0,0,0-.17.51.38.38,0,0,0,.5.17h0a3,3,0,0,1,2.72.26A.37.37,0,0,0,110.23,150.83Z" style="fill:#263238"></path><path d="M98.76,155.53a.36.36,0,0,0,.26-.25,3,3,0,0,1,1.86-2,.37.37,0,0,0,.26-.46.37.37,0,0,0-.46-.26,3.71,3.71,0,0,0-2.38,2.46.38.38,0,0,0,.24.48A.41.41,0,0,0,98.76,155.53Z" style="fill:#263238"></path><path d="M151.29,163.88c2.85,1.16,5.49,2.37,8.18,3.67s5.32,2.66,7.93,4.14c1.31.72,2.62,1.49,3.92,2.25s2.59,1.6,3.87,2.47a58.17,58.17,0,0,1,7.69,6l.32.3a5.57,5.57,0,0,1,1.76,4.15,18,18,0,0,1-.71,4.74,32.58,32.58,0,0,1-1.36,3.81,50.52,50.52,0,0,1-3.46,6.5c-1.27,2-2.62,3.92-4.05,5.75a64.56,64.56,0,0,1-4.57,5.29,3.42,3.42,0,0,1-5.59-3.76l.06-.12,2.6-5.9c.84-2,1.66-3.94,2.39-5.88a53.58,53.58,0,0,0,1.85-5.69,19.81,19.81,0,0,0,.5-2.56,6.52,6.52,0,0,0,0-1.85l2.08,4.45a58.59,58.59,0,0,0-6.4-4.12c-2.34-1.33-4.79-2.61-7.27-3.86s-5-2.47-7.54-3.66l-7.59-3.53-.09,0a6.82,6.82,0,0,1,5.44-12.5Z" style="fill:#ffc3bd"></path><path d="M140.55,163.82c8.38-3.72,23.38,5.14,23.38,5.14l-1.46,18.34a19.24,19.24,0,0,1-13.67-4.43C143.6,178.72,132,167.59,140.55,163.82Z" style="fill:#263238"></path><path d="M167.57,206.33l-6.3,5,7.88,5.58s5.15-5.22,2.82-8.41Z" style="fill:#ffc3bd"></path><path d="M160.25,219.63l3.09,1.49a2.8,2.8,0,0,0,3.49-.91l2.32-3.3-7.88-5.58-2.3,4.52A2.8,2.8,0,0,0,160.25,219.63Z" style="fill:#ffc3bd"></path><path d="M130.24,166.15a11.68,11.68,0,0,1-1.69,14.12c4.65-2.68,9.89.33,9.89.33s.95-10.52-5-14.16Z" style="fill:#fff"></path><path d="M119.74,173.16c1,1.51,1,5.51,4.91,9-2.62,1.32-3.53,5.47-3.53,5.47a18.3,18.3,0,0,1-3.8-11.3A8.89,8.89,0,0,1,119.74,173.16Z" style="fill:#fff"></path></g><g id="freepik--character-2--inject-72"><path d="M223.33,141.43l-5.23,6.11,8.8,4s4.06-6.11,1.16-8.79Z" style="fill:#ffc3bd"></path><path d="M218.7,155.88l3.31.87a2.81,2.81,0,0,0,3.26-1.57l1.63-3.68-8.8-4-1.38,4.88A2.78,2.78,0,0,0,218.7,155.88Z" style="fill:#ffc3bd"></path><path d="M184.87,54.33l3.07-2a18.77,18.77,0,0,0,5.89,3.44c-1,.85-1.51,1-1.78.92.72.42,2.68,2,1.87,5.65A11.92,11.92,0,0,1,184.87,54.33Z" style="fill:#e0e0e0"></path><path d="M225.23,152.79,198,159.51v0l-17.12,4c-.49,9.79,1.13,21,3.42,32.94l57,1.21C237.65,179.34,225.23,152.79,225.23,152.79Z" style="fill:#263238"></path><path d="M211,89.22c2.58,1.66,4.86,3.32,7.2,5.11s4.59,3.63,6.79,5.61a81.83,81.83,0,0,1,6.42,6.36,42.31,42.31,0,0,1,5.82,8l.2.36a4.75,4.75,0,0,1,.53,1.55,25.84,25.84,0,0,1-.46,9.49,51.86,51.86,0,0,1-2.42,7.86,76.33,76.33,0,0,1-3.3,7.15,69.43,69.43,0,0,1-4,6.72,3.41,3.41,0,0,1-6.09-2.86l0-.14c.63-2.25,1.33-4.63,1.93-6.93s1.17-4.62,1.62-6.9a54.47,54.47,0,0,0,1-6.62,16.9,16.9,0,0,0-.32-5.34l.72,1.91a37.34,37.34,0,0,0-4.59-5.19c-1.82-1.74-3.8-3.44-5.84-5.12s-4.15-3.31-6.3-4.91-4.38-3.23-6.44-4.71l-.11-.07A6.82,6.82,0,0,1,211,89.22Z" style="fill:#ffc3bd"></path><path d="M201.7,84.17c7.86.3,22.41,13.85,22.41,13.85l-8.27,15.46a40.54,40.54,0,0,1-12.59-6.83C201.17,105.05,192.4,83.81,201.7,84.17Z" style="fill:#263238"></path><path d="M199.11,84.2a127,127,0,0,0-29.87,9.18,11.39,11.39,0,0,0-6.42,11.83c1.58,11.42,7.22,25.06,17.61,58.87,4.36.63,16.53-1.51,26.09-3.84,1-.25,3.2-3.15,3.2-3.15s2.65,1.62,4,1.24c6.28-1.85,11.2-3.82,12.17-5.28-3.75-7.6-5.89-26-9.3-39.56-1-5.39-3.21-15.27-6.24-20.62C207.46,87.81,204.84,83.28,199.11,84.2Z" style="fill:#263238"></path><path d="M175.74,73.9c1.39,5.81,2.78,13.82,1.7,18.14,2.93,3.25,8.95,5.27,14.74,5.89,3-4.77,1.93-8.75,0-10.87-3.6-1.85-3.6-5.45-3.82-7.92Z" style="fill:#ffc3bd"></path><path d="M192.18,97.93a7.48,7.48,0,0,0,.89-3.52c-.1-1.78,3.15-1.06,3.15-1.06A12.2,12.2,0,0,1,192.18,97.93Z" style="fill:#e0e0e0"></path><path d="M192.18,97.93A3.28,3.28,0,0,0,189,96a10.5,10.5,0,0,0-4.52,1.09S189.15,98.44,192.18,97.93Z" style="fill:#e0e0e0"></path><path d="M180.09,76.83c-.1-.36-.18-.74-.26-1.1l8.53,3.42a14.4,14.4,0,0,0,1,5C185.42,83.29,181,80.33,180.09,76.83Z" style="opacity:0.2"></path><path d="M172.26,67.54c3.74,6.94,5.57,11.19,10.87,13.16,8,3,15.24-4.48,13.65-12.41-1.44-7.15-7.31-17.3-15.6-16.84A10.86,10.86,0,0,0,172.26,67.54Z" style="fill:#ffc3bd"></path><path d="M191.23,70.69a6.83,6.83,0,0,0-5.07,2,.25.25,0,1,0,.37.33,6.6,6.6,0,0,1,5.72-1.75.24.24,0,0,0,.28-.21.25.25,0,0,0-.21-.28A10.66,10.66,0,0,0,191.23,70.69Z" style="fill:#263238"></path><path d="M171.58,58.07c5.57,1.31,16.09-1.83,20.51-7.69a2.83,2.83,0,0,1-2.55-.49s3.83-3.19,3.27-6.79c-3.39,4.07-7.81,3.1-10.4,3-3.39-.07-6.19,0-9.51,3.19,1.81-3.59.52-5,.52-5S167.35,57.08,171.58,58.07Z" style="fill:#e0e0e0"></path><path d="M175,57c-4.95-2-7.5-3.44-8.25-4.91a5.64,5.64,0,0,0,.84,4,7,7,0,0,0-4.5,5c-1,4,6.86,10.32,9.39,10.55,5.44-.73,6.36-1.48,6.36-1.48s-2.16-4.31-4.26-5.3c2.22.75,2.68-.83,2.68-.83s-2.82-.69-3.12-2.7C176.07,61.24,177.78,58.14,175,57Z" style="fill:#e0e0e0"></path><path d="M184.27,73.88s.58,1.75,1.79.85C185.4,74.8,184.27,73.88,184.27,73.88Z" style="opacity:0.2"></path><path d="M193.81,71.14s.35,1.62-1,1.48C193.36,72.37,193.81,71.14,193.81,71.14Z" style="opacity:0.2"></path><path d="M181.79,65.35a4.29,4.29,0,0,0-3.14.94A8.56,8.56,0,0,0,181.79,65.35Z" style="opacity:0.2"></path><path d="M182,66.11a3.55,3.55,0,0,0-2.55,1.54A6.94,6.94,0,0,0,182,66.11Z" style="opacity:0.2"></path><path d="M191.77,60.71s.52-1.14,1.21-1A2.82,2.82,0,0,1,191.77,60.71Z" style="opacity:0.2"></path><path d="M192,61.26s.58-.81,1.21-.38A1.62,1.62,0,0,1,192,61.26Z" style="opacity:0.2"></path><path d="M171.32,73.21a7.44,7.44,0,0,0,5,2.85c2.61.31,3.54-2.12,2.5-4.38-.94-2-3.42-4.64-5.89-3.92A3.4,3.4,0,0,0,171.32,73.21Z" style="fill:#ffc3bd"></path><path d="M183,65.3c.27.58.79.9,1.17.73s.47-.8.2-1.38-.79-.91-1.17-.73S182.72,64.71,183,65.3Z" style="fill:#263238"></path><path d="M190.23,61.89c.27.58.79.9,1.17.73s.47-.8.2-1.38-.79-.91-1.17-.73S190,61.3,190.23,61.89Z" style="fill:#263238"></path><path d="M188.1,62.86a22.53,22.53,0,0,0,4.84,4,3.74,3.74,0,0,1-2.64,1.68Z" style="fill:#ed847e"></path><path d="M184.43,63.28a.33.33,0,0,1,.12.14.37.37,0,0,1-.17.5,3.74,3.74,0,0,1-3.45,0,.36.36,0,0,1-.13-.51.37.37,0,0,1,.51-.14h0a3,3,0,0,0,2.74,0A.37.37,0,0,1,184.43,63.28Z" style="fill:#263238"></path><path d="M188.94,60.85a.37.37,0,0,1,.23-.27,3,3,0,0,0,1.87-2,.38.38,0,0,1,.45-.29.38.38,0,0,1,.28.45,3.67,3.67,0,0,1-2.33,2.51.39.39,0,0,1-.49-.22A.34.34,0,0,1,188.94,60.85Z" style="fill:#263238"></path><path d="M174.09,106.83c-1.21,2.7-2.54,5.55-3.73,8.37s-2.39,5.64-3.52,8.46-2.16,5.64-3,8.41c-.44,1.38-.82,2.76-1.15,4.08a24.3,24.3,0,0,0-.65,3.64l-.29-2a9.86,9.86,0,0,0,2.07,3.83c.59.71,1.24,1.45,1.95,2.17s1.5,1.42,2.3,2.13c1.61,1.4,3.37,2.75,5.18,4.06s3.76,2.6,5.56,3.81l.17.11a3.41,3.41,0,0,1-2.71,6.14,54.19,54.19,0,0,1-7.2-2.37,56.58,56.58,0,0,1-6.88-3.35,38,38,0,0,1-6.61-4.79,20.76,20.76,0,0,1-5.55-8,4.86,4.86,0,0,1-.3-1.66v-.36a45.08,45.08,0,0,1,1.57-10.93c.82-3.33,1.81-6.51,2.91-9.62s2.28-6.17,3.55-9.17,2.57-5.93,4.11-8.94a6.82,6.82,0,0,1,12.3,5.87Z" style="fill:#ffc3bd"></path><path d="M168.78,93.62c-8.76,2.69-14.27,19.21-14.27,19.21l13.13,12.89a19.29,19.29,0,0,0,7.42-12.31C176.25,106.87,177.68,90.89,168.78,93.62Z" style="fill:#263238"></path><path d="M176.51,152.35l7.54,2.8-5.75,7.74s-6.53-3.36-5.3-7.12Z" style="fill:#ffc3bd"></path><path d="M187.6,162.72l-2.48,2.37a2.79,2.79,0,0,1-3.6.22l-3.22-2.42,5.75-7.74,3.59,3.58A2.8,2.8,0,0,1,187.6,162.72Z" style="fill:#ffc3bd"></path><path d="M177.49,87.63A11.72,11.72,0,0,0,189,96c-5.12,1.59-6.46,7.49-6.46,7.49s-8.37-6.44-7-13.28C176.41,89.06,177.49,87.63,177.49,87.63Z" style="fill:#fff"></path><path d="M189.77,84.68c.47,1.72,3.36,4.48,3.3,9.73,2.74-1,6.41,1.12,6.41,1.12a18.31,18.31,0,0,0-5.72-10.47A8.94,8.94,0,0,0,189.77,84.68Z" style="fill:#fff"></path></g><g id="freepik--character-3--inject-72"><path d="M296.07,56.11l-3.15-1.87a18.72,18.72,0,0,1-5.73,3.7c1,.8,1.55.89,1.82.84-.7.45-2.59,2.07-1.62,5.73A11.92,11.92,0,0,0,296.07,56.11Z" style="fill:#e0e0e0"></path><path d="M260.16,156.28l27.49,5.49v0L304.93,165c.93,9.76-.19,21-1.93,33.07l-56.89,3.76C249,183.36,260.16,156.28,260.16,156.28Z" style="fill:#263238"></path><path d="M283.19,86.58a127.59,127.59,0,0,1,30.25,7.84A11.38,11.38,0,0,1,320.38,106c-1.07,11.48-6.08,25.36-14.95,59.6-4.33.82-16.58-.77-26.23-2.66-1.05-.21-3.34-3-3.34-3s-2.58,1.74-3.91,1.41c-6.36-1.56-11.37-3.31-12.4-4.72,3.4-7.76,4.72-26.26,7.52-39.94.72-5.43,2.52-15.4,5.31-20.88C275,90.57,277.42,85.93,283.19,86.58Z" style="fill:#263238"></path><path d="M306.07,75.25c-1.13,5.86-2.16,13.93-.89,18.19-2.78,3.39-8.7,5.68-14.45,6.55-3.17-4.63-2.33-8.65-.49-10.85,3.51-2,3.35-5.61,3.46-8.09Z" style="fill:#ffc3bd"></path><path d="M290.73,100a7.31,7.31,0,0,1-1.05-3.47c0-1.79-3.19-.92-3.19-.92A12,12,0,0,0,290.73,100Z" style="fill:#e0e0e0"></path><path d="M290.73,100a3.26,3.26,0,0,1,3.07-2.09,10.43,10.43,0,0,1,4.57.88S293.78,100.37,290.73,100Z" style="fill:#e0e0e0"></path><path d="M301.86,78.38c.08-.37.15-.75.21-1.12l-8.37,3.8a14.42,14.42,0,0,1-.75,5.07C296.82,85.07,301.11,81.91,301.86,78.38Z" style="opacity:0.2"></path><path d="M309.26,68.74c-3.42,7.1-5.06,11.43-10.26,13.63-7.83,3.31-15.43-3.78-14.2-11.78,1.12-7.21,6.53-17.61,14.83-17.52A10.86,10.86,0,0,1,309.26,68.74Z" style="fill:#ffc3bd"></path><path d="M309.52,59.25c-5.5,1.56-16.16-1.11-20.83-6.77a2.81,2.81,0,0,0,2.52-.6s-4-3-3.57-6.63c3.56,3.91,7.95,2.75,10.52,2.58,3.39-.23,6.19-.31,9.65,2.76-2-3.5-.75-4.94-.75-4.94S313.7,58.07,309.52,59.25Z" style="fill:#e0e0e0"></path><path d="M306,58.32c4.85-2.17,7.33-3.76,8-5.26a5.66,5.66,0,0,1-.66,4.06,7,7,0,0,1,4.72,4.77c1.22,4-6.39,10.61-8.91,11-5.47-.49-6.42-1.19-6.42-1.19s2-4.41,4-5.49c-2.18.85-2.71-.71-2.71-.71s2.79-.81,3-2.84C305.18,62.62,303.32,59.59,306,58.32Z" style="fill:#e0e0e0"></path><path d="M296.91,72.71s1.82.28,1.14,1.62C298,73.66,296.91,72.71,296.91,72.71Z" style="opacity:0.2"></path><path d="M299.64,67a4.3,4.3,0,0,1,3.19.8A8.55,8.55,0,0,1,299.64,67Z" style="opacity:0.2"></path><path d="M299.5,67.75a3.56,3.56,0,0,1,2.62,1.43A7.13,7.13,0,0,1,299.5,67.75Z" style="opacity:0.2"></path><path d="M289.46,62.79s-.56-1.12-1.25-1A2.82,2.82,0,0,0,289.46,62.79Z" style="opacity:0.2"></path><path d="M289.31,63.35s-.62-.79-1.22-.32A1.64,1.64,0,0,0,289.31,63.35Z" style="opacity:0.2"></path><path d="M310.45,74.36a7.43,7.43,0,0,1-4.81,3.07c-2.59.43-3.63-2-2.69-4.26.84-2.07,3.2-4.79,5.7-4.18A3.39,3.39,0,0,1,310.45,74.36Z" style="fill:#ffc3bd"></path><path d="M298.45,67c-.25.59-.76.94-1.14.78s-.51-.77-.26-1.37.75-.94,1.14-.78S298.69,66.39,298.45,67Z" style="fill:#263238"></path><path d="M292.21,74c-.35.85-1,0-1.84-.34s-1.81-.23-1.46-1.08a1.8,1.8,0,0,1,3.3,1.42Z" style="fill:#263238"></path><path d="M291.06,63.9c-.24.59-.75.94-1.14.78s-.5-.78-.26-1.37.75-.94,1.14-.78S291.3,63.31,291.06,63.9Z" style="fill:#263238"></path><path d="M293.23,64.78A22.89,22.89,0,0,1,288.58,69a3.69,3.69,0,0,0,2.71,1.55Z" style="fill:#ed847e"></path><path d="M300.37,61.52a.31.31,0,0,0-.19,0,.38.38,0,0,0-.31.43,3.77,3.77,0,0,0,2,2.82.36.36,0,0,0,.49-.19.38.38,0,0,0-.19-.5h0a3,3,0,0,1-1.54-2.25A.4.4,0,0,0,300.37,61.52Z" style="fill:#263238"></path><path d="M293.43,58.26a.41.41,0,0,0-.36,0,3,3,0,0,1-2.7.23.37.37,0,0,0-.5.17.38.38,0,0,0,.17.51,3.71,3.71,0,0,0,3.42-.26.38.38,0,0,0,0-.66Z" style="fill:#263238"></path><path d="M321.94,108.15c-.07,3.07-.28,6-.54,8.95s-.6,5.91-1.06,8.88c-.21,1.48-.47,3-.72,4.46s-.58,3-.94,4.5a58.5,58.5,0,0,1-2.84,9.29l-.17.41a5.6,5.6,0,0,1-3.26,3.11,17.71,17.71,0,0,1-4.69,1,32.46,32.46,0,0,1-4,.07,47.87,47.87,0,0,1-7.3-.93c-2.34-.48-4.6-1.06-6.82-1.75a64,64,0,0,1-6.56-2.41,3.42,3.42,0,0,1,1.54-6.55h.13l6.44.34c2.14.09,4.27.17,6.35.16a56.93,56.93,0,0,0,6-.28A20,20,0,0,0,306,137a6.68,6.68,0,0,0,1.74-.62l-3.43,3.52a56.79,56.79,0,0,0,1.59-7.45c.42-2.65.74-5.39,1-8.15s.54-5.56.75-8.36l.62-8.34v-.1a6.82,6.82,0,0,1,13.61.67Z" style="fill:#ffc3bd"></path><path d="M318.21,98.08c6.44,6.52,3.46,23.69,3.46,23.69L304,126.89a19.22,19.22,0,0,1-.7-14.35C305.35,106.21,311.67,91.46,318.21,98.08Z" style="fill:#263238"></path><path d="M288,138.39l-6.91-4.12-2.43,9.34s6.71,3,8.87-.33Z" style="fill:#ffc3bd"></path><path d="M273,136.25l-.3,3.41a2.79,2.79,0,0,0,2.09,3l3.9,1,2.43-9.34-5-.55A2.79,2.79,0,0,0,273,136.25Z" style="fill:#ffc3bd"></path><path d="M281.91,101.05l-2,3-2,3.09c-1.31,2.07-2.55,4.17-3.75,6.25-.59,1-1.16,2.1-1.69,3.15s-1.07,2.09-1.54,3.13a35.39,35.39,0,0,0-2.18,6l-1.2-4.76c-.16-.1-.18,0,.14.26a5.22,5.22,0,0,0,1.6.69,23.49,23.49,0,0,0,5.2.69c1.93.09,4,0,6-.05s4.18-.29,6.17-.44h.2a3.41,3.41,0,0,1,1.75,6.48,51.4,51.4,0,0,1-6.49,2.56,48.17,48.17,0,0,1-6.89,1.69,29.81,29.81,0,0,1-7.78.35,18.11,18.11,0,0,1-4.64-1.1,12.21,12.21,0,0,1-5-3.61A5.68,5.68,0,0,1,256.6,124l0-.38a41.12,41.12,0,0,1,2.26-8.84,68.25,68.25,0,0,1,3.36-7.73c1.23-2.48,2.59-4.85,4-7.18.71-1.15,1.43-2.3,2.2-3.43s1.51-2.2,2.41-3.41A6.82,6.82,0,0,1,282,100.86Z" style="fill:#ffc3bd"></path><path d="M281.11,86.6C272,87.71,263.67,103,263.67,103l10.66,15a19.26,19.26,0,0,0,9.47-10.81C286.13,101,290.35,85.48,281.11,86.6Z" style="fill:#263238"></path><path d="M283.66,122.9l7.18-3.64,1.78,9.48s-6.9,2.51-8.82-.94Z" style="fill:#ffc3bd"></path><path d="M298.8,121.79l.07,3.43a2.79,2.79,0,0,1-2.29,2.79l-4,.73-1.78-9.48,5.07-.2A2.77,2.77,0,0,1,298.8,121.79Z" style="fill:#ffc3bd"></path><path d="M304.94,89.05A11.71,11.71,0,0,1,293.8,97.9c5.19,1.36,6.8,7.19,6.8,7.19s8.07-6.81,6.41-13.58C306.08,90.42,304.94,89.05,304.94,89.05Z" style="fill:#fff"></path><path d="M292.53,86.65c-.38,1.74-3.15,4.63-2.85,9.87-2.79-.91-6.36,1.4-6.36,1.4a18.38,18.38,0,0,1,5.25-10.71A8.87,8.87,0,0,1,292.53,86.65Z" style="fill:#fff"></path></g><g id="freepik--character-4--inject-72"><path d="M370.83,251.78l3.69,7.15-9.47,1.84s-2.56-6.88.88-8.82Z" style="fill:#ffc3bd"></path><path d="M372,266.91l-3.43.09a2.79,2.79,0,0,1-2.81-2.27l-.75-4,9.47-1.84.23,5.07A2.78,2.78,0,0,1,372,266.91Z" style="fill:#ffc3bd"></path><path d="M384,143.36l3.64.49a18.4,18.4,0,0,0,2.19,6.46c-1.29,0-1.77-.26-2-.48.26.79.74,3.23-2.3,5.5A11.92,11.92,0,0,1,384,143.36Z" style="fill:#e0e0e0"></path><path d="M349.92,244.15l-25-12.78v0l-15.53-8.23c-6.79,7.07-12.89,16.56-19,27.11l42.23,38.29C341.87,272.34,349.92,244.15,349.92,244.15Z" style="fill:#263238"></path><path d="M379.69,193.77l-1.85,7.83L376,209.45c-.58,2.61-1.16,5.21-1.66,7.78s-1,5.13-1.21,7.52v-.5l-.15,7.8c-.05,2.61-.15,5.23-.23,7.85-.2,5.25-.45,10.51-.94,15.77h0a3.42,3.42,0,0,1-6.75.37c-1.06-5.21-1.85-10.42-2.55-15.66-.33-2.61-.68-5.23-.94-7.86s-.55-5.25-.74-7.92v-.5a80.74,80.74,0,0,1,.65-8.87c.33-2.87.77-5.67,1.27-8.46s1.07-5.54,1.67-8.28,1.28-5.43,2.07-8.21a6.82,6.82,0,0,1,13.2,3.44Z" style="fill:#ffc3bd"></path><path d="M378.2,178.58c5.76,10.89.37,28.26.37,28.26l-17.53.37a40.31,40.31,0,0,1-.21-14.31C361.2,190.3,373.85,170.35,378.2,178.58Z" style="fill:#263238"></path><path d="M375.18,175.24a126.24,126.24,0,0,0-28.57-12.65A11.37,11.37,0,0,0,334,167.3c-6.3,9.66-11,23.65-25.32,56,2.88,3.33,13.46,9.7,22.21,14.21,1,.49,4.48-.28,4.48-.28s.94,3,2.18,3.54c6,2.72,11.67,5.54,13.35,5.07,2.16-8.18,11.92-24.58,18.23-37,2.81-4.71,7.59-13.64,8.82-19.66C379.11,183.44,380.11,178.31,375.18,175.24Z" style="fill:#263238"></path><path d="M364.3,152.14c-2.77,5.29-7,12.26-10.61,14.81.07,4.37,3.29,9.85,7.25,14.11,5.36-1.66,7.2-5.33,7.13-8.21-1.5-3.75.86-6.47,2.31-8.48Z" style="fill:#ffc3bd"></path><path d="M360.94,181.06a7.42,7.42,0,0,0,3-2.07c1.1-1.41,3.07,1.26,3.07,1.26A12,12,0,0,1,360.94,181.06Z" style="fill:#e0e0e0"></path><path d="M360.94,181.06a3.29,3.29,0,0,0-1.11-3.56,10.51,10.51,0,0,0-4.12-2.14S358.32,179.46,360.94,181.06Z" style="fill:#e0e0e0"></path><path d="M365.65,157.2c.17-.34.35-.67.53-1l4.19,8.17a14.81,14.81,0,0,0-2.56,4.45C365.44,165.58,364.05,160.44,365.65,157.2Z" style="opacity:0.2"></path><path d="M365.84,145.05c-1.73,7.69-3.14,12.11-.43,17.07,4.07,7.45,14.44,6.62,18.45-.42,3.6-6.34,5.82-17.85-.74-22.94A10.86,10.86,0,0,0,365.84,145.05Z" style="fill:#ffc3bd"></path><path d="M378.09,159.88a6.78,6.78,0,0,0-5.14-1.82.25.25,0,0,0-.21.28.24.24,0,0,0,.27.21,6.59,6.59,0,0,1,5.47,2.43.24.24,0,0,0,.35,0,.26.26,0,0,0,0-.35A8.13,8.13,0,0,0,378.09,159.88Z" style="fill:#263238"></path><path d="M371.53,137.46c3.35,4.64,13.35,9.18,20.53,7.64a2.8,2.8,0,0,1-1.6-2s5,.1,6.91-3c-5.22.86-7.93-2.78-9.84-4.51-2.52-2.29-4.65-4.09-9.27-3.84,3.72-1.51,3.65-3.4,3.65-3.4S369,133.94,371.53,137.46Z" style="fill:#e0e0e0"></path><path d="M374.85,138.91c-2.45-4.72-3.4-7.51-3-9.11a5.63,5.63,0,0,0-2,3.59s-3-2.42-6.66.81c-3.1,2.75-1.59,12.28.16,14.12,4.59,3,5.77,3.05,5.77,3.05s1.2-4.67.27-6.78a2.55,2.55,0,0,0,3.28,1s-2.4-2.29-1.3-4C372.85,142.8,376.18,141.58,374.85,138.91Z" style="fill:#e0e0e0"></path><path d="M376,161.52s-.4-1.79-1.69-1C375,160.5,376,161.52,376,161.52Z" style="opacity:0.2"></path><path d="M374.44,149.7a4.25,4.25,0,0,0-3.11-1A8.57,8.57,0,0,0,374.44,149.7Z" style="opacity:0.2"></path><path d="M374.15,150.42a3.53,3.53,0,0,0-3-.2A7.09,7.09,0,0,0,374.15,150.42Z" style="opacity:0.2"></path><path d="M385.05,152.7s1.23-.24,1.55.38A2.85,2.85,0,0,1,385.05,152.7Z" style="opacity:0.2"></path><path d="M384.92,153.36s1,0,1,.73A1.63,1.63,0,0,1,384.92,153.36Z" style="opacity:0.2"></path><path d="M361.41,148.72a7.43,7.43,0,0,0,1.87,5.39c1.76,1.95,4.06.72,4.75-1.66.63-2.15.47-5.75-1.87-6.82A3.4,3.4,0,0,0,361.41,148.72Z" style="fill:#ffc3bd"></path><path d="M375.41,150.4c-.18.61,0,1.2.4,1.32s.88-.3,1.06-.91,0-1.21-.41-1.32S375.58,149.78,375.41,150.4Z" style="fill:#263238"></path><path d="M383.11,152.57c-.18.62,0,1.21.41,1.32s.87-.29,1.05-.91,0-1.2-.41-1.32S383.29,152,383.11,152.57Z" style="fill:#263238"></path><path d="M380.87,151.91a22.4,22.4,0,0,0,1,6.17,3.73,3.73,0,0,1-3.09-.47Z" style="fill:#ed847e"></path><path d="M378.85,146.32a.33.33,0,0,1,.12.14.37.37,0,0,1-.18.5,3.81,3.81,0,0,1-3.46-.06.38.38,0,0,1,.41-.64h0a3,3,0,0,0,2.73,0A.37.37,0,0,1,378.85,146.32Z" style="fill:#263238"></path><path d="M385.58,148.17a.36.36,0,0,1,.24.25,3,3,0,0,0,1.77,2.06.38.38,0,0,1,.24.48.39.39,0,0,1-.48.24,3.75,3.75,0,0,1-2.26-2.58.38.38,0,0,1,.27-.46A.33.33,0,0,1,385.58,148.17Z" style="fill:#263238"></path><path d="M341.45,175.91c-2.68,1.24-5.56,2.53-8.3,3.87s-5.51,2.69-8.21,4.08-5.33,2.85-7.82,4.36c-1.23.75-2.42,1.55-3.53,2.32a24.33,24.33,0,0,0-2.88,2.33l1.1-1.72a10,10,0,0,0-.95,4.25c0,.93,0,1.91.05,2.92s.2,2.05.34,3.11c.3,2.12.74,4.29,1.25,6.47s1.13,4.43,1.7,6.52l.05.19a3.4,3.4,0,0,1-6.07,2.86A55,55,0,0,1,304.3,211a56.34,56.34,0,0,1-3-7.05,37.75,37.75,0,0,1-1.84-7.95,20.7,20.7,0,0,1,1-9.66,4.71,4.71,0,0,1,.87-1.45l.23-.27a45.81,45.81,0,0,1,8.36-7.22c2.8-2,5.64-3.72,8.51-5.35s5.76-3.16,8.69-4.59,5.83-2.79,9-4.06a6.82,6.82,0,0,1,5.44,12.5Z" style="fill:#ffc3bd"></path><path d="M346.11,162.46c-8.38-3.72-23.38,5.14-23.38,5.14l1.46,18.34a19.25,19.25,0,0,0,13.67-4.42C343.06,177.36,354.62,166.24,346.11,162.46Z" style="fill:#263238"></path><path d="M313.42,211.86l3.86,7.06L307.86,221s-2.72-6.82.67-8.85Z" style="fill:#ffc3bd"></path><path d="M315,227l-3.42.17a2.81,2.81,0,0,1-2.87-2.2l-.84-3.94,9.42-2.07.36,5.06A2.79,2.79,0,0,1,315,227Z" style="fill:#ffc3bd"></path><path d="M356.61,163.65a11.69,11.69,0,0,0,3.22,13.85c-4.91-2.15-9.79,1.42-9.79,1.42s-2.09-10.35,3.42-14.62Z" style="fill:#fff"></path><path d="M367.82,169.48c-.78,1.61-.41,5.58-3.9,9.51,2.75,1,4.11,5,4.11,5a18.31,18.31,0,0,0,2.54-11.66A8.91,8.91,0,0,0,367.82,169.48Z" style="fill:#fff"></path></g><g id="freepik--Mask--inject-72"><path d="M272.25,396.47l-.3-1a63.86,63.86,0,0,0,20.11-10.59l.62.79A65.16,65.16,0,0,1,272.25,396.47Z" style="fill:#5A6383"></path><path d="M260.3,399l-.12-1a65.56,65.56,0,0,0,7.09-1.22l.22,1A67.85,67.85,0,0,1,260.3,399Z" style="fill:#5A6383"></path><path d="M250,147.05c-59.37,0-100.47,51.78-82.42,149.53S233.76,396,250,396s64.38-1.65,82.42-99.41S309.37,147.05,250,147.05Z" style="fill:#5A6383"></path><path d="M184.87,259.67c15.09-5.55,34.66-7.3,43.89,3.3S206.11,281.63,184.87,259.67Z" style="fill:#263238"></path><path d="M315.13,259.67c-15.09-5.55-34.66-7.3-43.89,3.3S293.89,281.63,315.13,259.67Z" style="fill:#263238"></path><path d="M263.09,300.59c-.68-3-8.33,1-13.09,1s-12.41-4.07-13.09-1,5.61,6.23,13.09,6.23S263.77,303.64,263.09,300.59Z" style="opacity:0.2"></path><path d="M261.05,353.42c-.57-1.27-7,.43-11.05.43s-10.48-1.7-11.05-.43S243.68,356,250,356,261.63,354.69,261.05,353.42Z" style="opacity:0.2"></path><path d="M257.67,333.46c-4.47,0-6.4.8-7.18,1.32a.88.88,0,0,1-1,0c-.78-.52-2.71-1.32-7.18-1.32-5,0-21,4.92-28.64,7.35a.85.85,0,0,0,.2,1.65c8.08.61,25.68,1.84,36.11,1.84s28-1.23,36.11-1.84a.85.85,0,0,0,.2-1.65C278.69,338.38,262.66,333.46,257.67,333.46Z" style="opacity:0.2"></path><path d="M193.51,349.05c-9.29-23.71-6.63-47-13.65-81-7.61-36.79,3.08-74.75,18.68-104.23-28.63,22.5-43,67.33-31,132.72,10.06,54.53,29.49,79.15,47.53,90.26C212,376.43,198.6,362,193.51,349.05Z" style="opacity:0.1"></path><path d="M306.49,349.05c9.29-23.71,6.63-47,13.65-81,7.61-36.79-3.08-74.75-18.68-104.23,28.63,22.5,43,67.33,31,132.72-10.06,54.53-29.49,79.15-47.53,90.26C288,376.43,301.4,362,306.49,349.05Z" style="opacity:0.1"></path></g></svg>