<?xml version="1.0" encoding="utf-8"?>
<!-- Generator: Adobe Illustrator 16.0.0, SVG Export Plug-In . SVG Version: 6.00 Build 0)  -->
<!DOCTYPE svg PUBLIC "-//W3C//DTD SVG 1.1//EN" "http://www.w3.org/Graphics/SVG/1.1/DTD/svg11.dtd">
<svg version="1.1" id="Calque_1" xmlns="http://www.w3.org/2000/svg" xmlns:xlink="http://www.w3.org/1999/xlink" x="0px" y="0px"
	 width="50.695px" height="67.593px" viewBox="24.653 16.203 50.695 67.593" enable-background="new 24.653 16.203 50.695 67.593"
	 xml:space="preserve">
<g>
	<title>book-bookmark</title>
	<path d="M30.285,16.204c-3.111,0-5.632,2.534-5.632,5.632v50.695c0,3.098,2.522,5.632,5.632,5.632h5.632v5.633l7.042-5.633
		L50,83.796v-5.633h19.715c3.112,0,5.633-2.534,5.633-5.632v-2.817c0,3.099-2.521,5.634-5.633,5.634H50v-5.634H35.918v5.634h-4.225
		c-2.333,0-4.225-1.973-4.225-4.226c0-2.535,1.891-4.226,4.225-4.226h38.021c3.112,0,5.634-2.535,5.634-5.631V21.835
		c0-3.098-2.521-5.632-5.634-5.632L30.285,16.204L30.285,16.204z"/>
</g>
</svg>
